TITLE ""
FILE "DISC2Track12.mp3" MP3
  TRACK 01 AUDIO
    TITLE "DISC2Track12_01"
    INDEX 01 00:00:00
  TRACK 02 AUDIO
    TITLE "DISC2Track12_02"
    INDEX 01 00:04:63
  TRACK 03 AUDIO
    TITLE "DISC2Track12_03"
    INDEX 01 00:05:10
  TRACK 04 AUDIO
    TITLE "DISC2Track12_04"
    INDEX 01 00:09:35
  TRACK 05 AUDIO
    TITLE "DISC2Track12_05"
    INDEX 01 00:13:31
  TRACK 06 AUDIO
    TITLE "DISC2Track12_06"
    INDEX 01 00:17:19
  TRACK 07 AUDIO
    TITLE "DISC2Track12_07"
    INDEX 01 00:17:42
  TRACK 08 AUDIO
    TITLE "DISC2Track12_08"
    INDEX 01 00:22:08
  TRACK 09 AUDIO
    TITLE "DISC2Track12_09"
    INDEX 01 00:25:40
  TRACK 10 AUDIO
    TITLE "DISC2Track12_10"
    INDEX 01 00:28:50
  TRACK 11 AUDIO
    TITLE "DISC2Track12_11"
    INDEX 01 00:29:12
  TRACK 12 AUDIO
    TITLE "DISC2Track12_12"
    INDEX 01 00:33:67
  TRACK 13 AUDIO
    TITLE "DISC2Track12_13"
    INDEX 01 00:37:62
  TRACK 14 AUDIO
    TITLE "DISC2Track12_14"
    INDEX 01 00:41:54
  TRACK 15 AUDIO
    TITLE "DISC2Track12_15"
    INDEX 01 00:41:74
  TRACK 16 AUDIO
    TITLE "DISC2Track12_16"
    INDEX 01 00:46:12
  TRACK 17 AUDIO
    TITLE "DISC2Track12_17"
    INDEX 01 00:50:06
  TRACK 18 AUDIO
    TITLE "DISC2Track12_18"
    INDEX 01 00:53:71
  TRACK 19 AUDIO
    TITLE "DISC2Track12_19"
    INDEX 01 00:54:20
  TRACK 20 AUDIO
    TITLE "DISC2Track12_20"
    INDEX 01 00:57:51
  TRACK 21 AUDIO
    TITLE "DISC2Track12_21"
    INDEX 01 01:00:73
  TRACK 22 AUDIO
    TITLE "DISC2Track12_22"
    INDEX 01 01:04:12
  TRACK 23 AUDIO
    TITLE "DISC2Track12_23"
    INDEX 01 01:04:36
  TRACK 24 AUDIO
    TITLE "DISC2Track12_24"
    INDEX 01 01:08:30
  TRACK 25 AUDIO
    TITLE "DISC2Track12_25"
    INDEX 01 01:12:10
  TRACK 26 AUDIO
    TITLE "DISC2Track12_26"
    INDEX 01 01:15:61
  TRACK 27 AUDIO
    TITLE "DISC2Track12_27"
    INDEX 01 01:16:08
  TRACK 28 AUDIO
    TITLE "DISC2Track12_28"
    INDEX 01 01:20:49
  TRACK 29 AUDIO
    TITLE "DISC2Track12_29"
    INDEX 01 01:24:13
  TRACK 30 AUDIO
    TITLE "DISC2Track12_30"
    INDEX 01 01:27:45
  TRACK 31 AUDIO
    TITLE "DISC2Track12_31"
    INDEX 01 01:27:70
  TRACK 32 AUDIO
    TITLE "DISC2Track12_32"
    INDEX 01 01:32:07
  TRACK 33 AUDIO
    TITLE "DISC2Track12_33"
    INDEX 01 01:36:49
  TRACK 34 AUDIO
    TITLE "DISC2Track12_34"
    INDEX 01 01:41:06
  TRACK 35 AUDIO
    TITLE "DISC2Track12_35"
    INDEX 01 01:41:35
  TRACK 36 AUDIO
    TITLE "DISC2Track12_36"
    INDEX 01 01:46:18
  TRACK 37 AUDIO
    TITLE "DISC2Track12_37"
    INDEX 01 01:50:69
  TRACK 38 AUDIO
    TITLE "DISC2Track12_38"
    INDEX 01 01:55:39
  TRACK 39 AUDIO
    TITLE "DISC2Track12_39"
    INDEX 01 01:55:63
  TRACK 40 AUDIO
    TITLE "DISC2Track12_40"
    INDEX 01 01:59:51
  TRACK 41 AUDIO
    TITLE "DISC2Track12_41"
    INDEX 01 02:03:39
  TRACK 42 AUDIO
    TITLE "DISC2Track12_42"
    INDEX 01 02:07:19
